<?xml version="1.0" standalone="no"?>
<!DOCTYPE svg PUBLIC "-//W3C//DTD SVG 20010904//EN"
 "http://www.w3.org/TR/2001/REC-SVG-20010904/DTD/svg10.dtd">
<svg version="1.0" xmlns="http://www.w3.org/2000/svg"
 width="781.000000pt" height="781.000000pt" viewBox="0 0 781.000000 781.000000"
 preserveAspectRatio="xMidYMid meet">
<metadata>
Created by potrace 1.11, written by Peter Selinger 2001-2013
</metadata>
<g transform="translate(0.000000,781.000000) scale(0.100000,-0.100000)"
fill="#000000" stroke="none">
<path d="M7407 5264 c-1 -1 -40 -5 -87 -8 -47 -4 -110 -9 -140 -12 -30 -2 -77
-7 -105 -9 -145 -13 -197 -18 -385 -41 -217 -27 -257 -32 -305 -39 -16 -2 -52
-7 -80 -10 -27 -4 -61 -8 -75 -11 -14 -2 -41 -7 -60 -10 -19 -3 -46 -7 -59 -9
-13 -2 -45 -7 -70 -11 -25 -4 -55 -8 -66 -10 -11 -3 -36 -7 -55 -10 -62 -10
-166 -28 -220 -39 -14 -3 -41 -8 -60 -11 -19 -3 -150 -30 -290 -59 -637 -134
-1231 -305 -1815 -522 -66 -24 -129 -48 -140 -53 -11 -5 -83 -34 -160 -65 -77
-31 -153 -62 -170 -70 -16 -7 -100 -44 -185 -81 -137 -60 -560 -269 -740 -367
-69 -37 -272 -154 -355 -205 -27 -17 -70 -43 -95 -58 -183 -112 -503 -334
-695 -483 -101 -79 -283 -227 -295 -240 -3 -3 -48 -44 -100 -91 -52 -47 -107
-96 -121 -110 -77 -74 -169 -162 -169 -164 0 -1 841 1 853 3 5 0 56 48 115
105 59 58 118 114 132 126 14 12 43 38 65 59 159 148 531 446 750 601 123 86
463 309 565 369 58 35 112 67 120 72 351 211 970 509 1420 683 96 37 184 72
195 77 30 13 183 68 235 84 25 7 106 34 180 60 137 46 548 172 590 180 13 2
37 9 54 14 58 19 458 118 549 136 10 3 26 6 35 9 9 3 31 8 47 10 17 3 86 17
155 31 69 15 136 28 150 31 14 2 35 7 48 9 29 7 236 43 282 49 19 3 46 7 60
10 14 3 61 10 105 16 44 7 87 13 95 15 8 1 40 6 71 9 31 4 65 8 75 10 35 6
159 20 177 19 9 0 17 3 17 8 0 6 -36 9 -43 3z"/>
<path d="M7473 5263 c9 -2 23 -2 30 0 6 3 -1 5 -18 5 -16 0 -22 -2 -12 -5z"/>
<path d="M397 4218 c16 -13 42 -32 58 -43 15 -11 42 -31 61 -45 57 -43 149
-110 501 -368 l343 -251 92 59 c51 33 155 97 230 142 76 46 137 85 138 88 0 3
-137 103 -304 223 l-303 217 -423 0 -424 0 31 -22z"/>
<path d="M2395 3299 c-22 -16 -115 -84 -207 -152 -92 -67 -168 -125 -168 -129
0 -3 109 -86 243 -184 133 -97 274 -200 312 -229 39 -28 97 -71 130 -96 l60
-44 418 0 c231 0 420 2 422 5 3 5 -1148 853 -1163 857 -4 1 -25 -12 -47 -28z"/>
</g>
</svg>
